<svg id="Capa_1" data-name="Capa 1" xmlns="http://www.w3.org/2000/svg" viewBox="0 0 150 150"><defs><style>.cls-1{fill:#00818d;}</style></defs><path class="cls-1" d="M106.24,66.45V59.54a5,5,0,0,0-1.26-3.3,3.12,3.12,0,0,0,1.26-2.49V49.63A6.92,6.92,0,0,0,104.47,45L85,23.12a3.26,3.26,0,0,0,1.16-2.49V12.57a3.29,3.29,0,0,0-3.29-3.29H67.18a3.29,3.29,0,0,0-3.29,3.29v8.06a3.26,3.26,0,0,0,1.16,2.49L45.53,45a6.93,6.93,0,0,0-1.77,4.62v4.12A3.11,3.11,0,0,0,45,56.24a5,5,0,0,0-1.25,3.3v6.91a5,5,0,0,0,1.66,3.74,4.54,4.54,0,0,0-.3,6.75,4.58,4.58,0,0,0,0,6.51,4.56,4.56,0,0,0,0,6.5,4.56,4.56,0,0,0,0,6.5,4.58,4.58,0,0,0,0,6.51,4.56,4.56,0,0,0,0,6.5,4.55,4.55,0,0,0,.28,6.74,5.44,5.44,0,0,0-1.64,3.9V128a12.75,12.75,0,0,0,12.74,12.74h37A12.75,12.75,0,0,0,106.24,128V120.1a5.45,5.45,0,0,0-1.65-3.9,4.53,4.53,0,0,0,.28-6.74,4.54,4.54,0,0,0,0-6.5,4.55,4.55,0,0,0,0-6.51,4.54,4.54,0,0,0,0-6.5,4.54,4.54,0,0,0,0-6.5,4.55,4.55,0,0,0,0-6.51,4.52,4.52,0,0,0-.3-6.75A5,5,0,0,0,106.24,66.45ZM48.85,56.88h52.3a2.66,2.66,0,0,1,2.66,2.66v6.91a2.66,2.66,0,0,1-2.66,2.66H48.85a2.66,2.66,0,0,1-2.66-2.66V59.54A2.66,2.66,0,0,1,48.85,56.88ZM66.31,12.57a.87.87,0,0,1,.87-.87H82.82a.87.87,0,0,1,.87.87v8.06a.86.86,0,0,1-.87.86H67.18a.86.86,0,0,1-.87-.86Zm-19,34.05,19.8-22.2a1.48,1.48,0,0,1,1.11-.5h13.5a1.48,1.48,0,0,1,1.11.5l19.8,22.2a4.52,4.52,0,0,1,1.15,3v4.12a.7.7,0,0,1-.71.7H46.9a.7.7,0,0,1-.71-.7V49.63A4.52,4.52,0,0,1,47.34,46.62Zm56.47,73.48V128A10.33,10.33,0,0,1,93.5,138.3h-37A10.33,10.33,0,0,1,46.19,128V120.1a3,3,0,0,1,2-2.83l.19,0h53.32l.19,0A3,3,0,0,1,103.81,120.1Zm0-7.39a2.16,2.16,0,0,1-1.69,2.1,5.55,5.55,0,0,0-1.35-.17H49.23a5.55,5.55,0,0,0-1.35.17,2.14,2.14,0,0,1-.31-4.1,4.9,4.9,0,0,0,.77.08h53.32a4.9,4.9,0,0,0,.77-.08A2.14,2.14,0,0,1,103.81,112.71Zm0-6.5a2.14,2.14,0,0,1-1.38,2,4.9,4.9,0,0,0-.77-.08H48.34a4.9,4.9,0,0,0-.77.08,2.15,2.15,0,0,1,0-4,3.94,3.94,0,0,0,.77.08h53.32a3.94,3.94,0,0,0,.77-.08A2.16,2.16,0,0,1,103.81,106.21Zm0-6.51a2.16,2.16,0,0,1-1.38,2,3.94,3.94,0,0,0-.77-.08H48.34a3.94,3.94,0,0,0-.77.08,2.15,2.15,0,0,1,0-4,4.9,4.9,0,0,0,.77.08h53.32a4.9,4.9,0,0,0,.77-.08A2.14,2.14,0,0,1,103.81,99.7Zm0-6.5a2.14,2.14,0,0,1-1.38,2,4.9,4.9,0,0,0-.77-.07H48.34a4.9,4.9,0,0,0-.77.07,2.14,2.14,0,0,1,0-4,4.9,4.9,0,0,0,.77.08h53.32a4.9,4.9,0,0,0,.77-.08A2.14,2.14,0,0,1,103.81,93.2Zm0-6.5a2.14,2.14,0,0,1-1.38,2,4.9,4.9,0,0,0-.77-.08H48.34a4.9,4.9,0,0,0-.77.08,2.15,2.15,0,0,1,0-4,3.94,3.94,0,0,0,.77.08h53.32a3.94,3.94,0,0,0,.77-.08A2.16,2.16,0,0,1,103.81,86.7Zm0-6.51a2.16,2.16,0,0,1-1.38,2,3.94,3.94,0,0,0-.77-.08H48.34a3.94,3.94,0,0,0-.77.08,2.15,2.15,0,0,1,0-4,4.9,4.9,0,0,0,.77.08h53.32a4.9,4.9,0,0,0,.77-.08A2.14,2.14,0,0,1,103.81,80.19Zm-2.15-8.65a2.15,2.15,0,0,1,.77,4.15,4.9,4.9,0,0,0-.77-.07H48.34a4.9,4.9,0,0,0-.77.07,2.15,2.15,0,0,1,.77-4.15h53.32Z"/></svg>