<svg id="Capa_1" data-name="Capa 1" xmlns="http://www.w3.org/2000/svg" viewBox="0 0 150 150"><defs><style>.cls-1{fill:#00818d;}</style></defs><path class="cls-1" d="M94.47,62.62a4.12,4.12,0,0,0,1.7-3.33c0-12.92-7.67-22.14-9.55-24.21a4.81,4.81,0,0,0,1.27-3.24v-6.3A4.88,4.88,0,0,0,83,20.67H67a4.88,4.88,0,0,0-4.87,4.87v6.3a4.81,4.81,0,0,0,1.27,3.24c-1.88,2.07-9.55,11.29-9.55,24.21a4.12,4.12,0,0,0,1.7,3.33,5.58,5.58,0,0,0-1.7,4v6.82A5.6,5.6,0,0,0,56,77.85a5.52,5.52,0,0,0,0,8.67,5.53,5.53,0,0,0,0,8.66,5.52,5.52,0,0,0,0,8.65,5.54,5.54,0,0,0-.08,8.6,5.26,5.26,0,0,0-2,4.11,12.81,12.81,0,0,0,12.79,12.79H83.38a12.81,12.81,0,0,0,12.79-12.79,5.26,5.26,0,0,0-2-4.11,5.54,5.54,0,0,0-.08-8.6,5.52,5.52,0,0,0,0-8.65,5.53,5.53,0,0,0,0-8.66,5.52,5.52,0,0,0,0-8.67,5.6,5.6,0,0,0,2.12-4.39V66.64A5.58,5.58,0,0,0,94.47,62.62Zm-.73,4v6.82a3.19,3.19,0,0,1-3.18,3.19H59.44a3.19,3.19,0,0,1-3.18-3.19V66.64a3.19,3.19,0,0,1,3.18-3.19H90.56A3.19,3.19,0,0,1,93.74,66.64Zm-29.2-41.1A2.44,2.44,0,0,1,67,23.1H83a2.44,2.44,0,0,1,2.44,2.44v6.3A2.45,2.45,0,0,1,83,34.28H67a2.45,2.45,0,0,1-2.44-2.44ZM58,61a1.73,1.73,0,0,1-1.73-1.73c0-11.92,7.28-20.73,8.93-22.59H84.81c1.65,1.86,8.93,10.67,8.93,22.59A1.73,1.73,0,0,1,92,61H58ZM90.91,113.7a2.84,2.84,0,0,1,2.83,2.84A10.37,10.37,0,0,1,83.38,126.9H66.62a10.37,10.37,0,0,1-10.36-10.36,2.84,2.84,0,0,1,2.83-2.84H90.91Zm2.83-5.54a3.12,3.12,0,0,1-3.11,3.12H59.37a3.12,3.12,0,0,1,0-6.23H90.63A3.11,3.11,0,0,1,93.74,108.16Zm0-8.65a3.11,3.11,0,0,1-3.11,3.11H59.37a3.12,3.12,0,0,1,0-6.23H90.63A3.12,3.12,0,0,1,93.74,99.51Zm0-8.66A3.11,3.11,0,0,1,90.63,94H59.37a3.12,3.12,0,0,1,0-6.23H90.63A3.12,3.12,0,0,1,93.74,90.85ZM90.63,79.08a3.12,3.12,0,0,1,0,6.23H59.37a3.12,3.12,0,0,1,0-6.23H90.63Z"/></svg>