<svg id="Capa_1" data-name="Capa 1" xmlns="http://www.w3.org/2000/svg" viewBox="0 0 150 150"><defs><style>.cls-1{fill:#00818d;}</style></defs><path class="cls-1" d="M118.13,74.51C117.78,73,116.34,73,115.39,73h-3.33c-1-12-6.69-22.12-16-28.44a37.3,37.3,0,0,0-31.39-4.91c-3,.85-3.06,1.38-3,3.77l0,8.68c0,.18,0,.38,0,.6,0,1-.11,2.36.82,3.07s2.24.2,3.12-.23l.54-.25a22.51,22.51,0,0,1,20.66,1.79,20.5,20.5,0,0,1,9.73,16l-2.49,0h-.41a2.49,2.49,0,0,0-2.56.91c-.69,1.11,0,2.1.51,2.83l9.75,14.79.33.54c.56,1,1.32,2.25,2.6,2.28h.06c1.3,0,2.08-1.29,2.65-2.24l.33-.52L117.15,77l.25-.35A2.67,2.67,0,0,0,118.13,74.51ZM88.75,55.46a24.82,24.82,0,0,0-23.5-2.39L65,53.2l-.85.39c0-.29,0-.7,0-1.22V52.1l0-8c0-.48,0-.84,0-1.13a3,3,0,0,1,0-.56,4.31,4.31,0,0,1,1-.34l.35-.1a34.91,34.91,0,0,1,29.38,4.59c9.1,6.21,14.44,16.25,15,28.29l0,.57,5.49,0h.06l-.06.09-10,14.76c-.29.42-.51.77-.68,1s-.21.35-.3.47l-.28-.45c-.18-.3-.4-.67-.7-1.12L93.84,75.73l-.1-.14c0-.06-.07-.12-.11-.17h.21l5.18.09v-.59A22.82,22.82,0,0,0,88.75,55.46Z"/><path class="cls-1" d="M87.48,94.22c-1-.78-2.24-.2-3.12.23l-.54.25a22.48,22.48,0,0,1-20.66-1.79,20.5,20.5,0,0,1-9.73-16l2.49,0h.41a2.49,2.49,0,0,0,2.56-.91c.69-1.11,0-2.1-.51-2.83L48.63,58.46l-.33-.54c-.56-1-1.33-2.24-2.6-2.28S43.57,56.92,43,57.88l-.33.52L32.85,73l-.25.35a2.65,2.65,0,0,0-.73,2.18C32.22,77,33.66,77,34.61,77h3.33c1,12,6.69,22.12,16,28.44a36.89,36.89,0,0,0,20.84,6.4,38.19,38.19,0,0,0,10.55-1.49c3-.85,3.06-1.38,3-3.77l0-8.68c0-.18,0-.38,0-.6C88.34,96.29,88.41,94.93,87.48,94.22Zm-26.23.32a24.77,24.77,0,0,0,23.5,2.39l.27-.12.87-.4c0,.29,0,.71,0,1.24v.25l0,8c0,.48,0,.84,0,1.13a3,3,0,0,1,0,.56,4.31,4.31,0,0,1-1,.34l-.35.1a34.91,34.91,0,0,1-29.38-4.59c-9.1-6.2-14.44-16.25-15-28.29l0-.57-5.49,0h-.06l.06-.09,9.95-14.76c.29-.42.51-.77.68-1.05s.21-.34.3-.47l.28.45c.18.3.4.67.7,1.12l9.54,14.48.1.15.11.16h-.21L51,74.49v.59A22.82,22.82,0,0,0,61.25,94.54Z"/></svg>