<svg id="Capa_1" data-name="Capa 1" xmlns="http://www.w3.org/2000/svg" viewBox="0 0 150 150"><defs><style>.cls-1{fill:#00818d;}</style></defs><path class="cls-1" d="M102.49,73.79a1.17,1.17,0,0,0,.09-.45A25.91,25.91,0,0,0,89.3,50.68L86.59,31.8A4,4,0,0,0,85.84,30a4.63,4.63,0,0,0,2.08-3.86V20.7a4.63,4.63,0,0,0-4.62-4.62H66.7a4.63,4.63,0,0,0-4.62,4.62v5.45A4.63,4.63,0,0,0,64.16,30a4,4,0,0,0-.75,1.79L60.7,50.68A25.92,25.92,0,0,0,47.42,73.34a1.17,1.17,0,0,0,.09.45,61.19,61.19,0,0,1,0,45.09,1.12,1.12,0,0,0-.09.44v5A9.57,9.57,0,0,0,57,133.92H93a9.57,9.57,0,0,0,9.56-9.56v-5a1.12,1.12,0,0,0-.09-.44A61.19,61.19,0,0,1,102.49,73.79Zm-38-53.09a2.19,2.19,0,0,1,2.19-2.19H83.3a2.19,2.19,0,0,1,2.19,2.19v5.45a2.2,2.2,0,0,1-2.19,2.2H66.7a2.2,2.2,0,0,1-2.19-2.2Zm35.64,103.66A7.14,7.14,0,0,1,93,131.49H57a7.14,7.14,0,0,1-7.13-7.13v-4.81a63.54,63.54,0,0,0,0-46.44A23.49,23.49,0,0,1,62.4,52.52a1.27,1.27,0,0,0,.62-.9l2.8-19.48a1.6,1.6,0,0,1,1.58-1.37H82.6a1.6,1.6,0,0,1,1.58,1.37L87,51.62a1.26,1.26,0,0,0,.65.91,23.49,23.49,0,0,1,12.52,20.58,63.54,63.54,0,0,0,0,46.44Z"/><path class="cls-1" d="M81.16,39.59a1.22,1.22,0,0,0,1-1.36L81.78,35a1.21,1.21,0,0,0-2.41.31l.43,3.26A1.21,1.21,0,0,0,81,39.6Z"/><path class="cls-1" d="M81.38,41.29a1.21,1.21,0,0,0-1,1.36l.66,5a1.22,1.22,0,0,0,1.2,1.06h.16a1.21,1.21,0,0,0,1-1.36l-.65-5A1.22,1.22,0,0,0,81.38,41.29Z"/></svg>