<svg id="Capa_1" data-name="Capa 1" xmlns="http://www.w3.org/2000/svg" viewBox="0 0 150 150"><defs><style>.cls-1{fill:#00818d;}</style></defs><path class="cls-1" d="M96.81,66.62a139.38,139.38,0,0,0-18.4-3.86l-1.23-.2a13.88,13.88,0,0,0-3.61-2.72c-.19-.34-.41-.75-.65-1.2C69.36,52,61,36.44,53.58,34.24a5.28,5.28,0,0,0-4.18.37c-7.64,4.21,1,24.38,4.27,32l.41,1a13.92,13.92,0,0,0-.77,4.57,14.19,14.19,0,0,0,.11,1.72l-.72,1.09c-4.59,7-16.79,25.71-10,31.18,3.72,3,9.73.13,17.88-8.51L60,114.79A1.19,1.19,0,0,0,61.09,116h0a1.18,1.18,0,0,0,1.19-1.14l.75-20C65.59,92,68,89,70.28,86.14l.5-.62.48-.14,1.13,29.37a1.19,1.19,0,0,0,.38.83,1.17,1.17,0,0,0,.86.31,1.2,1.2,0,0,0,1.14-1.23L73.6,84.41a13.26,13.26,0,0,0,1.6-1l1.88.13c9.19.62,30.71,2.08,32.15-6.55C109.92,72.84,105.74,69.35,96.81,66.62ZM67.17,58.28A13.83,13.83,0,0,0,55.4,64.82c-7-16.65-8.67-26.14-4.9-28.21a2.9,2.9,0,0,1,1.41-.36,3.64,3.64,0,0,1,1.1.17c4.14,1.21,10,8.69,17.31,22.22A13.83,13.83,0,0,0,67.17,58.28Zm0,2.15a11.71,11.71,0,1,1-11.71,11.7A11.72,11.72,0,0,1,67.17,60.43Zm-13,16.47A13.9,13.9,0,0,0,67.49,86c-2,2.5-4.14,5.13-6.43,7.71l-.08.08c-10.33,11.6-14.86,12.15-16.83,10.56C40.78,101.64,44.14,92.4,54.15,76.9ZM81,72.13a13.83,13.83,0,0,0-1.86-6.95c6.19,1,23.39,3.77,27.17,9a3.14,3.14,0,0,1,.65,2.44c-.72,4.31-10.62,5.88-29.41,4.66A13.77,13.77,0,0,0,81,72.13Z"/><path class="cls-1" d="M67.17,80.7a8.57,8.57,0,1,0-8.57-8.57A8.57,8.57,0,0,0,67.17,80.7Zm0-15.1a6.54,6.54,0,1,1-6.53,6.53A6.54,6.54,0,0,1,67.17,65.6Z"/></svg>