<svg id="Capa_1" data-name="Capa 1" xmlns="http://www.w3.org/2000/svg" viewBox="0 0 150 150"><defs><style>.cls-1{fill:#00818d;}</style></defs><path class="cls-1" d="M98,66.8l-2.87-4.73a1.9,1.9,0,0,1-.27-1V45.44a1.9,1.9,0,0,1,.38-1.13l1.84-2.41A3.44,3.44,0,0,0,96,36.8l-3.15-1.74V22.61a4.08,4.08,0,0,0-4.07-4.07H61.23a4.08,4.08,0,0,0-4.07,4.07V35.06L54,36.8a3.44,3.44,0,0,0-1.08,5.1l1.84,2.41a1.9,1.9,0,0,1,.38,1.13V61.11a1.9,1.9,0,0,1-.27,1L52,66.8A6.16,6.16,0,0,0,51.12,70v51.25a10.23,10.23,0,0,0,10.22,10.22H88.66a10.23,10.23,0,0,0,10.22-10.22V70A6.16,6.16,0,0,0,98,66.8ZM59.58,22.61A1.65,1.65,0,0,1,61.23,21H88.77a1.65,1.65,0,0,1,1.65,1.64v8.46H59.58Zm36.87,98.63A7.79,7.79,0,0,1,88.66,129H61.34a7.79,7.79,0,0,1-7.79-7.79V70a3.65,3.65,0,0,1,.54-1.93L57,63.33a4.25,4.25,0,0,0,.62-2.22V45.44a4.33,4.33,0,0,0-.87-2.6l-1.83-2.4a1,1,0,0,1-.19-.83,1,1,0,0,1,.5-.69l4.4-2.43v-3H90.42v3l4.4,2.43a1,1,0,0,1,.5.69,1,1,0,0,1-.19.83l-1.83,2.4a4.33,4.33,0,0,0-.87,2.6V61.11a4.25,4.25,0,0,0,.62,2.22l2.86,4.73A3.65,3.65,0,0,1,96.45,70Z"/><path class="cls-1" d="M90,78a1.22,1.22,0,0,0-1.21,1.22v25.56a1.22,1.22,0,0,0,2.43,0V79.17A1.22,1.22,0,0,0,90,78Z"/><path class="cls-1" d="M90,107.88a1.21,1.21,0,0,0-1.21,1.21v5.3a1.22,1.22,0,0,0,2.43,0v-5.3A1.22,1.22,0,0,0,90,107.88Z"/></svg>