<svg id="Capa_1" data-name="Capa 1" xmlns="http://www.w3.org/2000/svg" viewBox="0 0 150 150"><defs><style>.cls-1{fill:#00818d;}</style></defs><path class="cls-1" d="M89.77,92.4a1.22,1.22,0,0,0-1.22,1.21v12.14a1.22,1.22,0,0,0,2.43,0V93.61A1.21,1.21,0,0,0,89.77,92.4Z"/><path class="cls-1" d="M89.77,108.68a1.22,1.22,0,0,0-1.22,1.21v5a1.22,1.22,0,1,0,2.43,0v-5A1.21,1.21,0,0,0,89.77,108.68Z"/><path class="cls-1" d="M95.27,67,87.38,53V49.46a2.9,2.9,0,0,0,1.81-2.68V40.39a2.92,2.92,0,0,0-2.91-2.91H81.54v-11a6.22,6.22,0,1,0-12.44,0v11H64.36a2.91,2.91,0,0,0-2.91,2.91v6.39a2.9,2.9,0,0,0,1.81,2.68V53L54.85,66.86A7.94,7.94,0,0,0,53.7,71V120.5A9.27,9.27,0,0,0,63,129.76H87a9.27,9.27,0,0,0,9.26-9.26V70.87A8,8,0,0,0,95.27,67ZM71.52,26.47a3.8,3.8,0,1,1,7.59,0v11H71.52ZM63.88,40.39a.48.48,0,0,1,.48-.48H86.28a.49.49,0,0,1,.48.48v6.39a.49.49,0,0,1-.48.48H64.36a.48.48,0,0,1-.48-.48Zm30,80.11A6.83,6.83,0,0,1,87,127.33H63a6.83,6.83,0,0,1-6.83-6.83V71a5.49,5.49,0,0,1,.8-2.86l8.75-14.46v-4H85v4l8.2,14.52a5.52,5.52,0,0,1,.71,2.72Z"/></svg>