<svg id="Capa_1" data-name="Capa 1" xmlns="http://www.w3.org/2000/svg" viewBox="0 0 150 150"><defs><style>.cls-1{fill:#00818d;}</style></defs><path class="cls-1" d="M112.17,61.29c0-.09,0-.19,0-.29l-3.22-12.45V40.6A4.58,4.58,0,0,0,104.34,36H45.66a4.58,4.58,0,0,0-4.57,4.57v7.95L37.87,61c0,.1,0,.2,0,.29v43.42A9.28,9.28,0,0,0,47.1,114h55.8a9.28,9.28,0,0,0,9.27-9.26V61.29ZM43.52,40.6a2.14,2.14,0,0,1,2.14-2.14h58.68a2.14,2.14,0,0,1,2.14,2.14v6.89h-63Zm-.28,9.32h63.52l2.63,10.17H40.61Zm66.5,54.79a6.84,6.84,0,0,1-6.84,6.83H47.1a6.84,6.84,0,0,1-6.84-6.83V62.52h69.48Z"/><path class="cls-1" d="M104.91,93.79a1.21,1.21,0,0,0,1.21-1.21V79.8a1.22,1.22,0,0,0-2.43,0V92.58A1.22,1.22,0,0,0,104.91,93.79Z"/><path class="cls-1" d="M104.91,100.81a1.21,1.21,0,0,0,1.21-1.21V96.94a1.22,1.22,0,0,0-2.43,0V99.6A1.22,1.22,0,0,0,104.91,100.81Z"/></svg>