<svg id="Capa_1" data-name="Capa 1" xmlns="http://www.w3.org/2000/svg" viewBox="0 0 150 150"><defs><style>.cls-1{fill:#00818d;}</style></defs><path class="cls-1" d="M79.82,84.83V48a5,5,0,0,0-10.09,0V84.83a11.7,11.7,0,1,0,10.09,0Zm-5,19.85a9.3,9.3,0,0,1-3-18.11l.31-.11V48a2.65,2.65,0,0,1,5.29,0V86.14l.08.35.31.1a9.3,9.3,0,0,1-3,18.09Z"/><path class="cls-1" d="M91.83,63.05a1.42,1.42,0,1,0,0-2.83H86.15v-3h4.4a1.42,1.42,0,0,0,0-2.84h-4.4v-3h5.68a1.42,1.42,0,1,0,0-2.84H86.15V48A11.38,11.38,0,0,0,63.4,48V81.4a18,18,0,1,0,22.75,0V74.84h5.68a1.42,1.42,0,0,0,0-2.84H86.15V69h4.4a1.42,1.42,0,0,0,0-2.84h-4.4V63.05ZM74.77,111a15.63,15.63,0,0,1-9.16-28.29l.19-.13V48a9,9,0,0,1,18,0v34.4l0,.26.18.14A15.62,15.62,0,0,1,74.77,111Z"/></svg>