<svg id="Capa_1" data-name="Capa 1" xmlns="http://www.w3.org/2000/svg" viewBox="0 0 180 28"><defs><style>.cls-1{fill:#009ea4;}</style></defs><path class="cls-1" d="M115.56,18.28a1.08,1.08,0,0,1-.93,1.62H103.77a1.07,1.07,0,0,1-.93-.54,1,1,0,0,1,0-1.08l1.56-2.73-.41-.24a.33.33,0,0,1-.16-.28.29.29,0,0,1,0-.16.25.25,0,0,1,.12-.11l2.57-1.49a.31.31,0,0,1,.32,0,.3.3,0,0,1,.16.27v3a.3.3,0,0,1-.16.27.31.31,0,0,1-.32,0l-.41-.24-.6,1.07a.2.2,0,0,0,0,.21.19.19,0,0,0,.17.1h7a.21.21,0,0,0,.17-.11.19.19,0,0,0,0-.19l-3.51-6.08a.21.21,0,0,0-.35,0l-.88,1.52a.32.32,0,0,1-.36.15.32.32,0,0,1-.24-.31l0-.45a.18.18,0,0,0-.18-.16l-.07,0-.43.18a.31.31,0,0,1-.37-.05.33.33,0,0,1,0-.39l1.84-3.18a1.08,1.08,0,0,1,.94-.54,1.06,1.06,0,0,1,.94.54ZM11.69,19.68a6.5,6.5,0,0,0,2.6-.47A3.57,3.57,0,0,0,15.9,18a3,3,0,0,0,.54-1.75,2.58,2.58,0,0,0-.59-1.78,3.38,3.38,0,0,0-1.4-1,20.25,20.25,0,0,0-2.09-.61,9.13,9.13,0,0,1-1.83-.55.9.9,0,0,1-.6-.85,1.06,1.06,0,0,1,.52-.93,2.83,2.83,0,0,1,1.6-.35,6.23,6.23,0,0,1,3.11.88l.8-2a6.17,6.17,0,0,0-1.79-.74,8.74,8.74,0,0,0-2.1-.25,6.5,6.5,0,0,0-2.6.46A3.53,3.53,0,0,0,7.88,9.82a3.12,3.12,0,0,0-.53,1.76,2.65,2.65,0,0,0,.59,1.8,3.41,3.41,0,0,0,1.4,1,18,18,0,0,0,2.09.61c.56.13,1,.24,1.32.35a2.51,2.51,0,0,1,.8.42.84.84,0,0,1,.31.67,1,1,0,0,1-.53.87,3.13,3.13,0,0,1-1.63.33,6.51,6.51,0,0,1-2-.32A6,6,0,0,1,8,16.43l-.88,1.95a5.85,5.85,0,0,0,2,.94A9.17,9.17,0,0,0,11.69,19.68Zm14-.19h2.59V10.4h3.58V8.29H22.07V10.4h3.58Zm20.65,0H49L44,8.29H41.45l-5,11.2h2.66l1-2.4h5.2Zm-5.36-4.37,1.77-4.29,1.78,4.29Zm24.44,4.37-2.51-3.6a3.67,3.67,0,0,0,2.3-3.54,3.68,3.68,0,0,0-2.28-3.56,6.22,6.22,0,0,0-2.58-.5H55.46v11.2h2.59V16.37h2.39l2.15,3.12Zm-2.83-7.14a1.79,1.79,0,0,1-.61,1.44,2.72,2.72,0,0,1-1.78.51H58.05V10.4h2.11a2.78,2.78,0,0,1,1.78.5A1.8,1.8,0,0,1,62.55,12.35ZM77.34,8.29H72.49v11.2h2.6V16.4h2.25a6.22,6.22,0,0,0,2.58-.49,3.69,3.69,0,0,0,1.69-1.41,3.83,3.83,0,0,0,.59-2.15,3.68,3.68,0,0,0-2.28-3.56A6.22,6.22,0,0,0,77.34,8.29Zm-.14,6H75.09V10.4H77.2a2.73,2.73,0,0,1,1.77.5,1.77,1.77,0,0,1,.61,1.45A1.73,1.73,0,0,1,79,13.78,2.67,2.67,0,0,1,77.2,14.29Zm12.12,5.2h8.21V17.37H91.91V8.29H89.32Zm36.24.19a6.55,6.55,0,0,0,2.61-.47A3.63,3.63,0,0,0,129.78,18a3.11,3.11,0,0,0,.53-1.75,2.58,2.58,0,0,0-.58-1.78,3.45,3.45,0,0,0-1.4-1,19.8,19.8,0,0,0-2.1-.61,9.13,9.13,0,0,1-1.83-.55.9.9,0,0,1-.6-.85,1.08,1.08,0,0,1,.52-.93,2.87,2.87,0,0,1,1.61-.35,6.2,6.2,0,0,1,3.1.88l.8-2A6.17,6.17,0,0,0,128,8.35,8.6,8.6,0,0,0,126,8.1a6.47,6.47,0,0,0-2.6.46,3.53,3.53,0,0,0-1.59,1.26,3,3,0,0,0-.53,1.76,2.65,2.65,0,0,0,.58,1.8,3.47,3.47,0,0,0,1.4,1,17.68,17.68,0,0,0,2.1.61c.55.13,1,.24,1.32.35a2.62,2.62,0,0,1,.8.42.87.87,0,0,1,.31.67,1,1,0,0,1-.53.87,3.16,3.16,0,0,1-1.63.33,6.62,6.62,0,0,1-2-.32,6,6,0,0,1-1.71-.85L121,18.38a5.91,5.91,0,0,0,2,.94A9.1,9.1,0,0,0,125.56,19.68Zm14-.19h2.6V10.4h3.58V8.29h-9.76V10.4h3.58Zm12.85,0H155V8.29h-2.59Zm15.88.19a6.61,6.61,0,0,0,2.64-.51,5.24,5.24,0,0,0,2-1.49l-1.66-1.54a3.56,3.56,0,0,1-2.82,1.33,3.65,3.65,0,0,1-1.85-.46,3.11,3.11,0,0,1-1.27-1.27,3.65,3.65,0,0,1-.46-1.85,3.69,3.69,0,0,1,.46-1.86,3.17,3.17,0,0,1,1.27-1.27,3.75,3.75,0,0,1,1.85-.45,3.57,3.57,0,0,1,2.82,1.31l1.66-1.54a5.24,5.24,0,0,0-2-1.47,7,7,0,0,0-5.75.23,5.57,5.57,0,0,0-3,5.05,5.65,5.65,0,0,0,.79,3,5.52,5.52,0,0,0,2.17,2.06A6.43,6.43,0,0,0,168.25,19.68Z"/></svg>