<svg id="Capa_1" data-name="Capa 1" xmlns="http://www.w3.org/2000/svg" viewBox="0 0 150 150"><defs><style>.cls-1{fill:#00818d;}</style></defs><path class="cls-1" d="M85.36,103.49c-.19-.12-.37-.23-.51-.34l-15-10.66-.43-.33c-.8-.63-1.89-1.49-3.06-.85s-1.11,2-1.15,3.06c0,.19,0,.38,0,.54l-.29,3.26c-3.63,0-8.85,0-12.33-1.41-5.59-2.19-8-8.11-5.86-14.07,0-.12.09-.23.13-.34A2.39,2.39,0,0,0,47,80.5a2.62,2.62,0,0,0-1.36-1.33l-.3-.18-6-3.63A2.26,2.26,0,0,0,36.9,75a2.61,2.61,0,0,0-1.1,1.57l-.13.33a25.41,25.41,0,0,0-1.86,14.43c3,16.46,17.44,19.1,29.9,19.47l-.15,1.74c0,.2-.05.44-.09.7-.17,1.24-.38,2.79.23,3.59a1.76,1.76,0,0,0,1.47.73,5.65,5.65,0,0,0,2.38-.8c.18-.09.34-.18.5-.25l16.3-7.65c.16-.08.36-.15.56-.24,1.08-.44,2.55-1,2.66-2.36S86.33,104.11,85.36,103.49Zm-19.57,9.66c0-.2,0-.35,0-.42l.4-4.44-1,.25c-12.91-.2-26.46-2.47-29.19-17.63a22.85,22.85,0,0,1,1.72-13.15c.1-.23.16-.41.21-.56h0L44.13,81l.54.31.07,0,0,.07q-.09.19-.21.54c-2.6,7.06.48,14.37,7.16,17,4,1.58,9.92,1.57,14.22,1.56h1.05l.47-5.34c0-.52.07-.94.08-1.27a1.69,1.69,0,0,0,0-.23l.12.09c.22.17.5.39.86.65L83.53,105c.45.32.82.56,1.12.76l.4.26c-.13.07-.29.13-.45.2-.32.14-.73.31-1.22.54l-16.31,7.65-.17.09c-.65.33-1.06.52-1.32.63C65.62,114.55,65.74,113.55,65.79,113.15Z"/><path class="cls-1" d="M110,68.67l1.57-.78.65-.29c1.15-.5,2.57-1.13,2.94-2.07.64-1.62-1-2.63-2.06-3.24l-.48-.3-15-9.94-.5-.35c-.94-.69-2.22-1.63-3.4-1s-1.18,2.17-1.2,3.32c0,.22,0,.43,0,.62L91.19,73q0,.25-.06.54c-.12,1-.28,2.38.87,3s2.29-.1,3.21-.61l.48-.25,2.93-1.45c1.9,3.09,4.58,7.57,5.23,11.26,1,5.92-2.74,11.1-9,12.33-.12,0-.24,0-.36.06a2.42,2.42,0,0,0-1.68.79,2.56,2.56,0,0,0-.43,1.85c0,.12,0,.24,0,.35v7a2.27,2.27,0,0,0,1,2.29,1.91,1.91,0,0,0,1,.25,4.64,4.64,0,0,0,.93-.12l.35-.07a25.24,25.24,0,0,0,13.28-5.92C121.43,93.24,116.16,79.5,110,68.67Zm-15.3,31.62v-.07h0l.59-.1c7.51-1.48,12-7.77,10.78-15-.75-4.26-3.82-9.29-6.07-13l-.54-.89-4.81,2.37c-.47.23-.84.43-1.13.59l-.2.11,0-.14c0-.28.07-.64.1-1.08l1.27-18.41c0-.55.06-1,.07-1.35,0-.17,0-.34,0-.49l.4.29c.29.2.64.46,1.1.76l15,9.94.84.54.6.39-.53.24c-.43.18-1,.42-1.71.77l-4,2,.72.7c6.55,11.13,11.67,23.88.15,34.1A22.83,22.83,0,0,1,95.28,108l-.59.11h0v-7.17C94.7,100.65,94.69,100.45,94.68,100.29Z"/><path class="cls-1" d="M95,47c.68-.35,1.53-.79,1.57-1.92a2.62,2.62,0,0,0-.78-1.75l-.22-.28a25.29,25.29,0,0,0-11.44-9c-15.65-5.89-25.34,5.18-32,15.7l-1.41-1c-.16-.11-.35-.26-.56-.43-1-.78-2.2-1.76-3.2-1.64-1.73.19-1.85,2.16-1.91,3.33,0,.21,0,.4,0,.56L43.2,68.51a5,5,0,0,1-.08.6c-.17,1.15-.41,2.72.67,3.49a1.84,1.84,0,0,0,1.07.32,5.82,5.82,0,0,0,2.43-.8l.55-.27,16.88-7.46c.15-.07.32-.13.5-.2,1-.37,2.24-.86,2.29-2.19s-1.16-2-2-2.56c-.17-.11-.32-.21-.45-.31l-2.65-1.91c1.85-3.12,4.57-7.59,7.52-9.88C74.65,43.66,81,44.58,85,49.52l.22.29a2.41,2.41,0,0,0,1.49,1.12,2.58,2.58,0,0,0,1.84-.49l.3-.16,6-3.17ZM59.88,56.94l-.53.91L63.69,61c.43.31.78.54,1,.72l.19.12-.14.06c-.26.1-.59.23-1,.41L46.92,69.76c-.51.23-.91.42-1.23.58l-.43.21c0-.15,0-.32.06-.49,0-.35.1-.79.16-1.33l1.78-17.92q.06-.57.09-1c0-.26,0-.52.07-.71l.45.36c.37.29.85.68,1.49,1.14L53,53.23l.28-1c6.79-11,15.68-21.47,30.1-16.05a22.87,22.87,0,0,1,10.41,8.22c.15.2.28.35.38.47h0l-6.35,3.34-.56.32-.06,0,0,0c-.09-.12-.2-.28-.36-.47-4.81-6-12.5-7-18.27-2.56C65.08,48.18,62.08,53.25,59.88,56.94Z"/></svg>