<svg id="Capa_1" data-name="Capa 1" xmlns="http://www.w3.org/2000/svg" viewBox="0 0 150 150"><defs><style>.cls-1{fill:#00818d;}</style></defs><path class="cls-1" d="M74.84,65.34a1.24,1.24,0,0,0-1.23,1.24V102.1a1.24,1.24,0,0,0,2.47,0V66.58A1.25,1.25,0,0,0,74.84,65.34Z"/><path class="cls-1" d="M65.92,69.91h0a1.19,1.19,0,0,0-1.16,1.22l2,31.18A1.2,1.2,0,0,0,68,103.37h.08a1.33,1.33,0,0,0,.89-.43,1.09,1.09,0,0,0,.27-.79L67.23,71A1.19,1.19,0,0,0,65.92,69.91Z"/><path class="cls-1" d="M99.05,45.36h-.84a4.79,4.79,0,0,0-4.78-4.71H80.05a4.47,4.47,0,0,0-4.46-4.37H74.41A4.47,4.47,0,0,0,70,40.65H56.57a4.79,4.79,0,0,0-4.78,4.71H51a3.62,3.62,0,0,0-1.76,6.79l6.31,54.19c.42,3.67,3.15,7.38,7.54,7.38H87c4.39,0,7.12-3.71,7.54-7.38l6.31-54.19a3.62,3.62,0,0,0-1.76-6.79ZM87,111.17H63c-3,0-4.72-2.66-5-5.13L51.81,52.61H98.19L92,106C91.68,108.51,90,111.17,87,111.17ZM74.41,38.83h1.18a1.91,1.91,0,0,1,1.91,1.82h-5A1.91,1.91,0,0,1,74.41,38.83ZM54.34,45.36a2.22,2.22,0,0,1,2.23-2.15H93.43a2.22,2.22,0,0,1,2.23,2.15ZM51,47.91h48.1A1.08,1.08,0,0,1,100.13,49a1.1,1.1,0,0,1-.62,1h-49a1.1,1.1,0,0,1-.62-1A1.08,1.08,0,0,1,51,47.91Z"/><path class="cls-1" d="M84.08,69.91h0A1.21,1.21,0,0,0,82.77,71l-2,31.18a1.21,1.21,0,0,0,1.16,1.22H82a1.2,1.2,0,0,0,1.23-1.06l2-31.18A1.19,1.19,0,0,0,84.08,69.91Z"/></svg>