<svg id="Capa_1" data-name="Capa 1" xmlns="http://www.w3.org/2000/svg" viewBox="0 0 150 150"><defs><style>.cls-1{fill:#00818d;}</style></defs><path class="cls-1" d="M100.12,22.14a5.54,5.54,0,0,0-4.93-3H91V15.93a2.81,2.81,0,0,0-2.8-2.81H61.79A2.81,2.81,0,0,0,59,15.93v3.23H54.79a5.54,5.54,0,0,0-4.91,2.94,85.34,85.34,0,0,0-9.16,39.83c0,2.8,0,15.24,0,25.23,0,4.45,0,8.52,0,11.28,0,37.36,10.36,38.44,11.54,38.44H97.74c1.18,0,11.54-1.08,11.54-38.44V61.92A88.29,88.29,0,0,0,100.12,22.14ZM61.41,15.93a.38.38,0,0,1,.38-.38H88.22a.38.38,0,0,1,.38.38v3.23H61.41ZM52,23.24a3.12,3.12,0,0,1,2.77-1.65h40.4A3.12,3.12,0,0,1,98,23.26a84.51,84.51,0,0,1,8.68,32.85H43.31A81.81,81.81,0,0,1,52,23.24Zm54.83,38.68V97.23H43.15c0-2.68,0-6.23,0-10.06,0-10,0-22.45,0-25.26,0-1.15,0-2.27,0-3.38h63.6Q106.85,60.2,106.85,61.92Zm-9.14,72.53H52.31c-.1,0-8.94-1.08-9.15-34.8h63.68C106.64,132.89,98,134.41,97.71,134.45Z"/></svg>