<svg id="Capa_1" data-name="Capa 1" xmlns="http://www.w3.org/2000/svg" viewBox="0 0 150 150"><defs><style>.cls-1{fill:#00818d;}</style></defs><path class="cls-1" d="M56.46,90.86c-4.08-3.18-4.49-8.58-.23-12.17a7.4,7.4,0,0,1,0-12c-2.82-2.1-3.29-5-3-8.13a28.51,28.51,0,0,1,9.91-19.35c.64-.56,1.26-1.14,2-1.8-1.69-1-1.9-2.6-1.85-4.33.06-2.21,0-4.42,0-6.63a3.45,3.45,0,0,1,3.71-3.77q8,0,15.91,0a3.44,3.44,0,0,1,3.73,3.64c.07,2.59,0,5.19,0,7.78,0,1.46-.33,2-1.79,3.35.84.77,1.69,1.52,2.52,2.29a28.26,28.26,0,0,1,9.36,20.13,7.69,7.69,0,0,1-3,6.82,7.7,7.7,0,0,1,3,6,7.52,7.52,0,0,1-3,5.92c3.65,3,4.43,8.27-.18,12.2,2.84,2.12,3.27,5.11,3.22,8.4-.11,6.29,0,12.59,0,18.89,0,5.61-3.53,9.11-9.17,9.12H62.42c-5.71,0-9.22-3.52-9.23-9.21,0-6.34.07-12.68,0-19C53.11,95.86,53.63,93,56.46,90.86ZM75,92c-4.59,0-9.17,0-13.75,0a5.19,5.19,0,0,0-5.51,5.51q0,10.47,0,20.92a5.83,5.83,0,0,0,6.15,6.19q13,.06,26.09,0c3.79,0,6.18-2.47,6.19-6.26q0-10.34,0-20.67c0-3.61-2.08-5.7-5.68-5.71Zm0-26.6c4.8,0,9.59,0,14.39,0a4.5,4.5,0,0,0,4.79-4.91A24.54,24.54,0,0,0,88,44.18c-2-2.28-4.42-4.21-6.65-6.3-2.2,0-4.4-.09-6.6-.1-2,0-4.2-.5-5.92.2S65.55,40.6,64,42.05a25.5,25.5,0,0,0-8.2,17.82c-.19,3.59,1.65,5.54,5.2,5.54Zm0,12c4.88,0,9.75,0,14.63,0a4.64,4.64,0,1,0-.11-9.28q-14.49,0-29,0a5.13,5.13,0,0,0-2,.39,4.64,4.64,0,0,0-2.7,5,4.54,4.54,0,0,0,4.52,3.89C65.24,77.41,70.12,77.38,75,77.38Zm.11,2.67h-14a7.51,7.51,0,0,0-2,.21,4.66,4.66,0,0,0-3.28,4.88,4.54,4.54,0,0,0,4.4,4.19c9.89,0,19.78,0,29.67,0a3.62,3.62,0,0,0,1.12-.2,4.65,4.65,0,0,0,3.19-5.06,4.56,4.56,0,0,0-4.43-4C84.87,80,80,80.05,75.1,80.05Zm0-54.71c-2.58,0-5.17,0-7.75,0-1,0-1.46.35-1.44,1.42q.07,3.51,0,7c0,1,.38,1.44,1.42,1.44q7.69,0,15.39,0c1,0,1.38-.37,1.36-1.36,0-2.33,0-4.67,0-7,0-1.1-.39-1.52-1.48-1.5C80.11,25.37,77.61,25.34,75.1,25.34Z"/><path class="cls-1" d="M83.76,108.31c0-2.07,0-4.15,0-6.23,0-.92.28-1.66,1.29-1.67s1.31.71,1.31,1.64c0,4.2,0,8.4,0,12.59,0,1-.34,1.65-1.34,1.62s-1.26-.7-1.26-1.59C83.77,112.55,83.76,110.43,83.76,108.31Z"/></svg>