<svg id="Capa_1" data-name="Capa 1" xmlns="http://www.w3.org/2000/svg" viewBox="0 0 150 150"><defs><style>.cls-1{fill:none;stroke:#00818d;stroke-linecap:round;stroke-linejoin:round;stroke-width:3px;}</style></defs><path class="cls-1" d="M93.67,39.69c0,2.13,0,4.27,0,6.4a2.19,2.19,0,0,0,1.5,2.38,12.38,12.38,0,0,1,6,5.09,11.37,11.37,0,0,1,1.71,5.87c0,3.13,0,6.26,0,9.39,0,1-.54,1.88-.56,2.77s.56,1.71.56,2.67q0,13.55,0,27.1c0,1-.65,1.9-.56,2.76a23.47,23.47,0,0,1,.56,2.68c0,5.19-.1,10.38,0,15.57a4.79,4.79,0,0,1-4.95,4.93c-14.47,0-28.94,0-43.42,0-.85,0-1.71,0-2.56,0a4.64,4.64,0,0,1-4.79-4.69c0-5.44,0-10.89,0-16.33.88-1.67,0-3.34,0-5,0-9,0-17.93,0-26.89A3.45,3.45,0,0,1,47.28,73a3.05,3.05,0,0,0,0-2.79,1.87,1.87,0,0,1-.11-.85c.05-3.52-.17-7,.1-10.56a11.82,11.82,0,0,1,6.19-9.6,11.13,11.13,0,0,1,1.6-.75,2.1,2.1,0,0,0,1.39-2.24c0-2.21,0-4.41,0-6.62"/><path class="cls-1" d="M56.43,39.48a10,10,0,0,0-2.66-.56,4.51,4.51,0,0,1-4.24-4.14,76.91,76.91,0,0,1,0-7.89,4.61,4.61,0,0,1,4.87-4.17c3.35,0,6.69,0,10,0,10.35,0,20.7,0,31.05,0a4.93,4.93,0,0,1,5.15,5.15c-.13,2.09-.07,4.19,0,6.29a4.74,4.74,0,0,1-4.38,4.8.81.81,0,0,1-.22,0c-.91-.11-1.68.71-2.55.5a11,11,0,0,0-2.57-.51q-15.84,0-31.68,0a6.42,6.42,0,0,0-2.67.55"/><path class="cls-1" d="M47.9,71.59h54.19"/><path class="cls-1" d="M47.9,104h54.19"/></svg>