<svg id="Capa_1" data-name="Capa 1" xmlns="http://www.w3.org/2000/svg" viewBox="0 0 150 150"><defs><style>.cls-1{fill:#fff;}</style></defs><path class="cls-1" d="M86.39,73.07l-.07-.43-.4-1.85h0c0-2.41-.16-4.83,0-7.23.4-6.28,3-11.29,8.8-14.25h0l3.71-1.39a26.25,26.25,0,0,1,9-.68c5.9.7,11.28,2.6,14.41,8.07a23.16,23.16,0,0,1,2.28,7.07,23.74,23.74,0,0,1-1.45,13.47,14.2,14.2,0,0,1-9.12,8.37,25.51,25.51,0,0,1-16.31.21c-4-1.62-7.45-3.89-9.51-7.84h0Zm24.84-6.57.16,0c-.26-2.17-.47-4.34-.79-6.51a3.84,3.84,0,0,0-2.77-3.1,7.62,7.62,0,0,0-5.81.37,3.47,3.47,0,0,0-2.42,3,90.48,90.48,0,0,0-.16,10.92c.28,3.69,1.92,5.08,5.43,5.1s5.81-1.1,6.06-4.93C111,69.73,111.13,68.12,111.23,66.5Z"/><path class="cls-1" d="M58.72,84.84l-7.9,0q0-6.72,0-13.46c0-.06.07-.13.18-.29,2.15,0,4.37,0,6.59,0,.29,0,.59.38.84.64.7.74,1.38,1.5,2.07,2.25h0l.25.21h0c3.24,2.54,6.94,3,10.87,2.34.81-.14,2-.17,2-1.36s-1.13-1.18-2-1.43a.09.09,0,0,0-.15,0l-5.86-1.83h0l-1.4-.44h0C61,70.36,57.73,69.72,55,67.76a1.83,1.83,0,0,0-.21-.26c-5-4.42-5.78-9.85-2.29-15.47a3.14,3.14,0,0,0,.23-.63l.4-.26a15,15,0,0,1,7.79-3.72,23.79,23.79,0,0,1,12,1.29l.07,0-.08,0,2.86,1.67.17-2.17h7.62V60.88c-2.36,0-4.63,0-6.9,0a1.25,1.25,0,0,1-.84-.45,12,12,0,0,0-8.14-4.59,18.48,18.48,0,0,0-4.7-.06,1.91,1.91,0,0,0-1.34,1.29c0,.47.71,1,1.16,1.49.14.15.42.17.64.24,1.8.54,3.62,1,5.41,1.63,3.75,1.24,7.75,1.79,11.09,4.12h0c.22.21.43.43.67.62a11.19,11.19,0,0,1-2.47,19,14.81,14.81,0,0,1-6.71,1.43c-2.26-.09-4.5-.45-6.75-.69h0l-5.79-2.42Z"/><path class="cls-1" d="M48.46,56.72l-.46,0-.84,0-.86,0-2.9,0h-.29a4.78,4.78,0,0,0-.2,1q0,8.49,0,17a5.84,5.84,0,0,0,.19,1,3.76,3.76,0,0,0,1.17.48,21.24,21.24,0,0,0,3.09,0c.76-.07,1.12.19,1.23.91v7.54a1.51,1.51,0,0,0-.43,0l-21.68.06c-.69,0-.71-.41-.7-.91V77.3c0-.37,0-.74.08-1.23,1.37-.06,2.63-.09,3.88-.19a5.15,5.15,0,0,0,1.1-.34V56.66H25.45c0-1.38,0-2.64,0-3.9,0-1.77.1-3.53.15-5.29h0l1.59,0H47.53l1.11.14c0,2.67,0,5.3,0,7.93A8.2,8.2,0,0,1,48.46,56.72Z"/><path class="cls-1" d="M100.9,36.81A20.53,20.53,0,0,0,98.73,35a1.71,1.71,0,0,0-1.4-.07c-.87.38-1.64,1-2.49,1.43s-.72.78-.24,1.43c1.32,1.79,2.56,3.63,3.85,5.49-1.07.61-1.64.1-2.16-.59-1.07-1.44-2.16-2.87-3.22-4.32A1,1,0,0,0,91.61,38c-1.26.56-2.56,1-3.85,1.54a8.93,8.93,0,0,1-1.1.29c-1,.15-1.25.67-.79,1.59.3.62.53,1.28.79,1.94-1.11.37-1.71.06-2-.9-.11-.36-.37-.68-.5-1-.23-.62-.58-.73-1.24-.57a29.74,29.74,0,0,1-3.52.6c-1.66.21-3.33.36-4.94.53-.06.19-.08.27-.1.34-.09.46.26,1.13-.65,1.19s-1-.34-1-1.09c0-.2-.41-.54-.66-.57-2-.2-4-.34-6-.5h0A11,11,0,0,1,64.43,41c-1.14-.47-1.63.06-2,1a9.25,9.25,0,0,1-1.08,1.66h-.39c-.53-.09-.85-.24-.51-.89s.69-1.57,1.07-2.47l-2.41-.74L59,39.54h-.1c-1.27-.5-2.53-1-3.82-1.49a1,1,0,0,0-.88.19c-.74.86-1.4,1.78-2.09,2.68h0l-.41.51h0a9.68,9.68,0,0,0-.74,1,2.11,2.11,0,0,1-2,1.31l-.07,0-.08,0,.39-1.35h0L53,37c-1.14-.68-2.23-1.27-3.25-2-.61-.41-1.08-.46-1.6.11-2.33,2.53-4.73,5-7,7.62-.65.74-1.2.88-2.38.55a69.3,69.3,0,0,1,5.43-6.51c2.64-2.49,5.61-4.64,8.45-6.93h0l9.56-4.15a41.83,41.83,0,0,1,12.2-1.55A39.69,39.69,0,0,1,101,34.93l-.71.93.18.22,1.1-.42a.17.17,0,0,1,.1.1v1.06ZM82.42,38.24v0l-1.59-2.77c-1-1.39-1.9-2.79-2.89-4.16a1,1,0,0,0-.74-.39c-.94.1-1.87.29-2.75.44v9.09l6.38-.85,1.86-.44,0-.48Zm-9.79-7a23.94,23.94,0,0,0-2.56-.33,1.61,1.61,0,0,0-1.23.47c-1.53,2.2-3,4.46-4.43,6.72A5.52,5.52,0,0,0,64,39.26a34.25,34.25,0,0,0,8.64.94Zm6.76-1c1.44,2.29,2.87,4.52,4.24,6.78,1.05,1.72,1,1.78,3,1.13,1.51-.5,3-1.12,4.46-1.68l.21-.54c-.4-.25-.81-.46-1.18-.74-2.2-1.68-4.41-3.35-6.58-5.06A3,3,0,0,0,79.39,30.28Zm-23.46,6,.1.48c1.91.66,3.81,1.33,5.74,1.93.23.07.71-.22.88-.47q2.3-3.59,4.52-7.22a.94.94,0,0,0,.11-.8,2.69,2.69,0,0,0-2.72-.52c-1.48,1-3,1.9-4.38,3S57.34,35,55.93,36.25ZM82.11,26.7a37.58,37.58,0,0,0-17.36,0C68.37,30.48,78.72,30.46,82.11,26.7ZM50.19,33.48c1.16.69,2.11,1.19,3,1.78A1.28,1.28,0,0,0,55,35.09c2.57-2.13,5.22-4.16,7.85-6.23.23-.18.45-.37.67-.56a1.38,1.38,0,0,0-2.07-.68q-4.78,2.26-9.53,4.61A14.77,14.77,0,0,0,50.19,33.48ZM83.36,27.9c.19.34.21.43.27.47,2.91,2.32,5.81,4.64,8.74,6.94a.82.82,0,0,0,.71.18c1.15-.64,2.27-1.33,3.57-2.11a35.34,35.34,0,0,0-11.92-5.93C84.37,27.35,83.88,27.72,83.36,27.9Z"/><path class="cls-1" d="M53.07,95.53,53,95A5.34,5.34,0,0,0,51,92.31h0A2.81,2.81,0,0,0,49.36,90h0l.15-.93,1.74,1.36h0l.4.48a.14.14,0,0,1,.09.16,1,1,0,0,0,.91,1.22h0a2.41,2.41,0,0,0,2.06,2.15l.48,0c.85.53,1.26,0,1.61-.68l5-1.73-1.33-3.16c1-.32,1.57-.2,2,.76.91,2,1,1.89,3.11,1.58,1.92-.28,3.85-.54,5.78-.66,1.15-.07,1.92-.24,1.55-1.6,1.49-.39,1.56-.33,1.66,1.35,1.57.16,3.17.3,4.75.51,1.3.17,2.6.36,3.87.65a1,1,0,0,0,1.34-.68c.15-.35.37-.68.49-1,.3-.89.87-1.2,2-.84L85.85,92c2.21.82,4.35,1.65,6.52,2.39.23.08.7-.22.9-.47,1.07-1.35,2.12-2.74,3.13-4.13.79-1.09.77-1.1,2.46-.9l-4.58,6.52c1.29.75,2.58,1.56,3.94,2.23.24.12.87-.23,1.15-.53,2.25-2.46,4.51-4.92,6.68-7.46a1.69,1.69,0,0,1,2.12-.73,4.63,4.63,0,0,1-.29.68c-8.26,12.2-19.73,18.62-34.5,18.71a39.23,39.23,0,0,1-23.69-7.89c-.27-.2-.51-.46-.77-.69a2.82,2.82,0,0,0-2.25-1.85c-.07,0-.1,0-.1-.1.09-.92.36-1.09,1.12-.4.48.43.94,1.38,1.79.86a27.31,27.31,0,0,0,2.66-2l.27-.14.8,0Zm-1.82,2.81h0l-.91.25.21.38.22.24.56.55,0,.06c.77,1.43,2.23,1.73,3.59,2.18l7,2.86a1.29,1.29,0,0,0,1.81-.69l-1.21-.81-.65-1.5a10.36,10.36,0,0,0,1.19.65c.73.26,1.21,1.28,2.21.73l.48-.07.47.23.11-.16L66,103l.23-.08,1.14-.47c.65-.38.21-.74,0-1.11q-1.62-2.55-3.22-5.11c.41-.95-.37-1.23-.92-1.63a.19.19,0,0,1-.11-.19l-.4-.71,0,0-1-.6-.15.26.23.26a.15.15,0,0,1-.2,0,4,4,0,0,0-1.25,0,5.09,5.09,0,0,0-1.12.77l-.44.12a2.43,2.43,0,0,0-2.74.88c-.29.37,0,1.16,0,1.74l-1.16-.28h0c-.26-.22-.65-.67-.74-.62-.7.44-1.35,1-2,1.48a.12.12,0,0,1-.15.07C51.5,97.6,51.16,97.61,51.25,98.34ZM74.59,91.9c0,3.11,0,5.87,0,8.63a1,1,0,0,0,.63.7c2.75.53,2.76.52,4.36-1.77.39-.56.81-1.12,1.16-1.71.88-1.46,1.74-2.94,2.79-4.74ZM64.33,93l-.22.49c1.72,2.58,3.42,5.15,5.17,7.71a1,1,0,0,0,.76.36c.95-.1,1.88-.29,2.84-.44V91.91Zm15.45,9.17c1.24.87,2.42,1.23,3.76.16,1.95-1.55,4-3,6-4.51a24.53,24.53,0,0,0,2.06-2.1c-2.24-.73-4.15-1.37-6.08-2a.86.86,0,0,0-.75.29C83.08,96.69,81.46,99.38,79.78,102.15ZM65,105.64a37.54,37.54,0,0,0,17.57,0C78.54,102,69.19,101.93,65,105.64Zm18.79-1.53c.39.77.84,1,1.62.79a38.69,38.69,0,0,0,10.84-5.29,6,6,0,0,0,.76-.8,26.3,26.3,0,0,1-2.6-1.54c-1-.73-1.63-.47-2.47.28-2.23,1.94-4.55,3.77-6.84,5.64C84.67,103.52,84.21,103.79,83.76,104.11Z"/><path class="cls-1" d="M25.9,121.83c.94-.15,1.74-.45,2.2,1,.57,1.76,3.23,1.89,4.33.19a12,12,0,0,0,1.32-3.77,5.77,5.77,0,0,1-4.53,1c-2.25-.48-3.54-2.27-3.51-4.89s1.46-4.57,3.6-5c3-.6,5.26.67,6,3.58a13.35,13.35,0,0,1-.51,8.62c-1.12,2.76-3.25,3.79-6.14,3.1A3.66,3.66,0,0,1,25.9,121.83Zm7.62-6.61c0-2-1.08-3.22-2.82-3.23s-3,1.32-3,3.37,1,3,2.77,3.09S33.5,117.36,33.52,115.22Z"/><path class="cls-1" d="M78.84,115.57c-.09-5.21,3.92-6,7.11-5a4,4,0,0,1,2.64,3.37,4.13,4.13,0,0,1-1.61,4.3c-1.24.9-2.59,1.65-3.88,2.47a4.67,4.67,0,0,0-2.43,2.76h7.88v1.92H78.48a6.27,6.27,0,0,1,2.87-5.74c1.3-.82,2.64-1.58,3.9-2.47a3,3,0,0,0,.93-3.8,2.86,2.86,0,0,0-3.42-1.18,2.69,2.69,0,0,0-1.88,2.26c-.08.37-.09.75-.14,1.14Z"/><path class="cls-1" d="M47.87,117.91a55.37,55.37,0,0,1-1.5,5.47,3.91,3.91,0,0,1-4,2.43,4,4,0,0,1-4-2.46,12.79,12.79,0,0,1,.12-10.85,4.05,4.05,0,0,1,4.18-2.31,4,4,0,0,1,3.91,2.56A45.3,45.3,0,0,1,47.87,117.91Zm-2.28.17c-.14-1.21-.2-2.4-.42-3.56-.32-1.66-1.21-2.47-2.55-2.52a2.74,2.74,0,0,0-2.77,2.31,14.23,14.23,0,0,0-.08,7.3A2.71,2.71,0,0,0,42.5,124a2.88,2.88,0,0,0,2.65-2.47C45.39,120.37,45.45,119.22,45.59,118.08Z"/><path class="cls-1" d="M48.83,118A48.46,48.46,0,0,1,50,113.1a4.11,4.11,0,0,1,4.36-2.91,4.28,4.28,0,0,1,4.28,3.06,13.79,13.79,0,0,1-.17,9.58,4.36,4.36,0,0,1-4.36,3,4.22,4.22,0,0,1-4.18-3C49.4,121.26,49.19,119.66,48.83,118Zm8.58.09c-.21-1.36-.35-2.77-.67-4.14a2.41,2.41,0,0,0-2.37-2,2.58,2.58,0,0,0-2.57,1.76,12.47,12.47,0,0,0-.15,8.18,2.49,2.49,0,0,0,2.59,2,2.67,2.67,0,0,0,2.54-2.15C57.08,120.64,57.2,119.41,57.41,118.12Z"/><path class="cls-1" d="M90.55,114.78c.6-3.9,4-5.88,7.12-4a5.5,5.5,0,0,1,2.06,2.64,13.35,13.35,0,0,1,0,9c-.88,2.52-2.72,3.67-5,3.36a4.83,4.83,0,0,1-4.15-4.57Q90.53,118,90.55,114.78Zm8,3.47c-.28-1.61-.46-3-.78-4.46A2.24,2.24,0,0,0,95.49,112a2.29,2.29,0,0,0-2.42,1.41,11.88,11.88,0,0,0-.11,9A2.3,2.3,0,0,0,95.3,124a2.33,2.33,0,0,0,2.31-1.61C98.05,121,98.27,119.54,98.55,118.25Z"/><path class="cls-1" d="M114.6,115.18l.05-.06,0-.07c.2-1.23.36-2.47.62-3.68.08-.36.46-.65.7-1v0h6.61l.33.05c.07.62.14,1.25.23,2-2,0-3.72,0-5.48,0-.31,0-.85.23-.89.43-.23,1.1-.33,2.22-.49,3.41,2.64-1.23,4.44-.93,6.65,1h0l.87,1.71.09.38c.06,2.69-.53,5-3.31,6.22h-.11l-.09.06h-3.47l-1.32-.54c-1-.93-1.94-1.93-1.83-3.52,1-.08,2-.41,2.31,1,.09.4.62.78,1,1a3.28,3.28,0,0,0,4-.73,3.83,3.83,0,0,0,0-4.51,3.42,3.42,0,0,0-4.13-.6c-.29.17-.5.49-.8.64-.71.35-1.44.67-2-.22h0C114.29,117.2,114.44,116.19,114.6,115.18Z"/><path class="cls-1" d="M65.76,125.16c0-2.49-.08-5-.11-7.47,0-1,0-1.9,0-3-.83,0-1.51,0-2.19,0-1.44,0-1.49-.06-1.17-1.57l1.66-.32a2.17,2.17,0,0,0,1.89-1.64c.24-1,.87-1.1,1.8-.87v15.13l-1.88-.31A6.08,6.08,0,0,0,66,124c0-1.88,0-3.77,0-5.66v-3.08h-.27Z"/><path class="cls-1" d="M106.71,125.12V114.73h-2.18c-1.41,0-1.47-.1-1.1-1.56.4-.08.81-.17,1.22-.24,1-.16,2-.53,2.28-1.64s.87-1.21,1.81-.9v15.12Z"/><path class="cls-1" d="M52.14,96.14a27.31,27.31,0,0,1-2.66,2c-.85.52-1.31-.43-1.79-.86-.76-.69-1-.52-1.12.4A38.87,38.87,0,0,1,39,88.9a1.79,1.79,0,0,1,2.28.67c2.22,2.58,4.57,5.06,6.85,7.59a1.25,1.25,0,0,0,1.9.18A22.47,22.47,0,0,1,52.14,96.14Z"/><path class="cls-1" d="M30,75.65l.88-.11a5.15,5.15,0,0,1-1.1.34c-1.25.1-2.51.13-3.88.19,0,.49-.08.86-.08,1.23v6.46c0,.5,0,.91.7.91l21.68-.06a1.51,1.51,0,0,1,.43,0V77.49c0,2.46,0,4.92,0,7.38H25.47V75.65Z"/><path class="cls-1" d="M101.62,36.82V35.76l.54.53.08.05c.63.59,1.28,1.15,1.88,1.75a23.16,23.16,0,0,1,3.55,4.69c-.27.48-.56.67-1,.19a5.5,5.5,0,0,0-.89-.59h0c-.11-1-.28-1.2-.81-1l-.1-.19a23.65,23.65,0,0,0-1.32-2.17C103,38.26,102.27,37.56,101.62,36.82Z"/><path class="cls-1" d="M74.35,116.41v-2.16h2C76.75,116.56,76.59,116.74,74.35,116.41Z"/><path class="cls-1" d="M76.4,125.37h-2v-2.29h2Z"/><path class="cls-1" d="M101.62,36.82c.65.74,1.34,1.44,1.92,2.23a23.65,23.65,0,0,1,1.32,2.17l-4-4.41Z"/><path class="cls-1" d="M90.55,114.78q0,3.23,0,6.43A12.62,12.62,0,0,1,90.55,114.78Z"/><path class="cls-1" d="M51.25,90.43l-1.74-1.36-.15.93-.71-1.13C50.2,88.5,50.31,88.58,51.25,90.43Z"/><path class="cls-1" d="M122.55,110.35h0Z"/><path class="cls-1" d="M51,92.31A5.34,5.34,0,0,1,53,95Z"/><path class="cls-1" d="M46.67,97.83a2.82,2.82,0,0,1,2.25,1.85Z"/><path class="cls-1" d="M105.75,42.38a5.5,5.5,0,0,1,.89.59c.47.48.76.29,1-.19.44.36.57.66-.16.75A1.41,1.41,0,0,1,105.75,42.38Z"/><path class="cls-1" d="M54.69,94.43a2.41,2.41,0,0,1-2.06-2.15C53.31,93,54,93.72,54.69,94.43Z"/><path class="cls-1" d="M49.36,90A2.81,2.81,0,0,1,51,92.32Z"/><path class="cls-1" d="M56.78,93.72c-.35.67-.76,1.21-1.61.68Z"/><path class="cls-1" d="M101.52,35.66l-1.1.42-.18-.22.71-.93Z"/><path class="cls-1" d="M52.64,92.28a1,1,0,0,1-.91-1.22Z"/><path class="cls-1" d="M105,41.41c.53-.22.7,0,.81,1Z"/><path class="cls-1" d="M85.92,70.79l.4,1.85Z"/><path class="cls-1" d="M53.07,95.53l.14.44-.8,0Z"/><path class="cls-1" d="M47.16,56.8l.84,0Z"/><path class="cls-1" d="M51.64,90.9l-.4-.48Z"/><polygon class="cls-1" points="102.25 36.34 102.16 36.29 102.22 36.29 102.25 36.34"/><path class="cls-1" d="M65.57,71.94l-1.4-.44Z"/><path class="cls-1" d="M60.46,74l.25.21Z"/><path class="cls-1" d="M43.4,56.71l0,2.52V75.66h5.27L48.59,77c-.11-.72-.47-1-1.23-.91a21.24,21.24,0,0,1-3.09,0,3.76,3.76,0,0,1-1.17-.48q0-9.47,0-18.92Z"/><path class="cls-1" d="M43.11,56.7q0,9.45,0,18.92a5.84,5.84,0,0,1-.19-1q0-8.49,0-17A4.78,4.78,0,0,1,43.11,56.7Z"/><path class="cls-1" d="M80.82,39.57l1.86-.44Z"/><path class="cls-1" d="M62.57,103.35a35.76,35.76,0,0,1-7.67-6.41l1.16.28c0-.58-.24-1.37,0-1.74a2.43,2.43,0,0,1,2.74-.88L56,96a39.67,39.67,0,0,0,9.33,7.25c-1,.55-1.48-.47-2.21-.73a10.36,10.36,0,0,1-1.19-.65Z"/><path class="cls-1" d="M54.55,101.75,55,102c-1.36-.45-2.82-.75-3.58-2.18l2.84,1.75Z"/><path class="cls-1" d="M54.91,97c-.56.1-1.12.15-1.66.3a7,7,0,0,0-1.09.56c.66-.51,1.31-1,2-1.48C54.26,96.28,54.65,96.73,54.91,97Z"/><path class="cls-1" d="M61.66,93.69l-2.37.79a5.09,5.09,0,0,1,1.12-.77A4,4,0,0,1,61.66,93.69Z"/><path class="cls-1" d="M64.17,96.24l-.92-1.63C63.8,95,64.58,95.29,64.17,96.24Z"/><path class="cls-1" d="M62.76,93.73l-.9-.08-.23-.26.15-.26Z"/><path class="cls-1" d="M51.26,98.33l-.7.63-.21-.38Z"/><path class="cls-1" d="M52,97.88l-.76.46C51.16,97.61,51.5,97.6,52,97.88Z"/><path class="cls-1" d="M66.27,102.93l1.14-.47Z"/><path class="cls-1" d="M63.14,94.42l-.39-.71Z"/><path class="cls-1" d="M50.78,99.2l.56.55Z"/><path class="cls-1" d="M65.8,103.16,66,103l.34.22-.11.16Z"/><path class="cls-1" d="M65.76,125.16v-9.92H66v3.08c0,1.89,0,3.78,0,5.66a6.08,6.08,0,0,1-.26,1.18Z"/><path class="cls-1" d="M54.55,101.75l-.32-.19Z"/></svg>