<svg id="Capa_1" data-name="Capa 1" xmlns="http://www.w3.org/2000/svg" viewBox="0 0 150 150"><defs><style>.cls-1{fill:none;stroke:#00818d;stroke-linecap:round;stroke-linejoin:round;stroke-width:3px;}</style></defs><path class="cls-1" d="M39.68,46a10,10,0,0,1-2.63,3.78,16.5,16.5,0,0,0-4,4.78A13.07,13.07,0,0,0,31.75,60c0,21.24,0,42.49,0,63.73,0,3.2.17,3.49,3.49,3.5q39.72.06,79.44,0c3.23,0,3.5-.27,3.5-3.5q.06-45.43,0-90.88A10.14,10.14,0,0,0,108.06,22.7q-19.43,0-38.84,0a12.1,12.1,0,0,0-8.79,3.54,8.86,8.86,0,0,1-3.28,2.35.91.91,0,0,0-.65.64,9.34,9.34,0,0,1-2.23,3C50.39,36.14,46.55,40.05,42.7,44a6.69,6.69,0,0,1-2.9,1.89"/><path class="cls-1" d="M77.39,72.23c-2,1-3.13,2.83-4.4,4.53a85.21,85.21,0,0,0-9,14.46,16.87,16.87,0,0,0-2,7.29,15,15,0,0,0,4.92,11.29,15.45,15.45,0,0,0,20.08,1,15.17,15.17,0,0,0,6.14-12.18c.08-3.43-1.41-6.48-3-9.42a109.69,109.69,0,0,0-9.66-14.59,7.22,7.22,0,0,0-2.89-2.39"/><path class="cls-1" d="M56.65,28.74a25.38,25.38,0,0,0-3.53-3.5,6.39,6.39,0,0,0-8.77,0c-2.82,2.61-5.51,5.38-8.18,8.15a6.62,6.62,0,0,0-.12,8.78c1.14,1.28,2.41,2.44,3.63,3.66"/><path class="cls-1" d="M71.48,34.77c-2.3.58-2.5.84-2.51,3.27,0,1.85-.11,3.7,0,5.53.22,3,.13,3.2,3.25,3.23,10.56.11,21.12.05,31.67,0a15.26,15.26,0,0,0,1.89-.24,1.21,1.21,0,0,0,1.14-1.13,9.7,9.7,0,0,0,.25-2c-.14-2.39.23-4.79-.24-7.17A1.36,1.36,0,0,0,105.68,35a10.51,10.51,0,0,0-2-.23h-32"/></svg>