<svg id="Capa_1" data-name="Capa 1" xmlns="http://www.w3.org/2000/svg" viewBox="0 0 150 150"><defs><style>.cls-1{fill:#00818d;}</style></defs><path class="cls-1" d="M68.17,123.6a8.57,8.57,0,0,1-5,3.46,8.16,8.16,0,0,1-10-7.58c0-.25,0-.51,0-.76,0-20.29-.05-40.57,0-60.85A16.28,16.28,0,0,1,61.66,43a22.31,22.31,0,0,0,3.5-2.51,18,18,0,0,0,2-2.5c-3.16-.79-3.84-1.69-3.84-4.72,0-2.25,0-4.5,0-6.76A3.46,3.46,0,0,1,67,22.73c5.31,0,10.61,0,15.91,0,2.39,0,3.76,1.43,3.79,3.86s0,4.76,0,7.14c0,2.53-1.07,3.74-3.83,4.16a10.49,10.49,0,0,0,1.43,2.06A22.67,22.67,0,0,0,88,42.79c6,3.44,8.78,8.68,8.79,15.47q0,30.1,0,60.21c0,4-2,7.07-5.34,8.31s-6.72.23-9.41-2.88a2.1,2.1,0,0,0-.32-.2,8.2,8.2,0,0,1-13.6-.1Zm1.65-85.82c-1,3.53-3.51,5.61-6.46,7.25-5.19,2.9-7.56,7.38-7.57,13.2q0,30.12,0,60.23a8,8,0,0,0,.31,2.39,5.41,5.41,0,0,0,5.68,3.78,5.5,5.5,0,0,0,5.05-5.19c.09-.85.28-1.55,1.27-1.57s1.27.6,1.36,1.48a5.55,5.55,0,0,0,5.47,5.31c2.92,0,5.12-2,5.57-5.2.12-.87.31-1.65,1.39-1.59s1.21.84,1.29,1.71a5.5,5.5,0,0,0,10.79,1,10.14,10.14,0,0,0,.21-2.53c0-19.78,0-39.56,0-59.33,0-6.22-2.36-10.88-7.9-13.92-2.67-1.47-5-3.42-6-6.51a.93.93,0,0,0-.71-.51C76.38,37.77,73.11,37.78,69.82,37.78ZM75,35.19c2.54,0,5.09,0,7.63,0,1.09,0,1.55-.37,1.54-1.47,0-2.3,0-4.59,0-6.89,0-1.08-.39-1.52-1.49-1.52-5.09,0-10.18,0-15.27,0-1,0-1.49.33-1.47,1.4q.06,3.51,0,7c0,1,.38,1.47,1.43,1.45C69.86,35.16,72.41,35.19,75,35.19Z"/><path class="cls-1" d="M86.35,57.86c0,1-.16,1.79-1.15,1.88s-1.41-.6-1.46-1.51a7.17,7.17,0,0,0-3.54-6c-.73-.46-1.14-1.08-.63-1.91s1.33-.76,2.09-.27A9.72,9.72,0,0,1,86.35,57.86Z"/></svg>